<svg width="448" height="530" viewBox="0 0 448 530" fill="none" xmlns="http://www.w3.org/2000/svg">
<g clip-path="url(#clip0_6_667)">
<path d="M0 25C0 11.1929 11.1929 0 25 0H423C436.807 0 448 11.1929 448 25V505C448 518.807 436.807 530 423 530H25C11.1929 530 0 518.807 0 505V25Z" fill="white"/>
<path d="M262 257L368 257" stroke="#EFF2F5" stroke-width="9"/>
<path d="M262 203H448" stroke="#EFF2F5" stroke-width="9"/>
<path d="M224 165V87C224 69.3269 238.327 55 256 55H315" stroke="#EFF2F5" stroke-width="9"/>
<path d="M197 187V112C197 94.3269 182.673 80 165 80H6.4373e-06" stroke="#EFF2F5" stroke-width="9"/>
<path d="M340 373L272 373C254.327 373 240 358.673 240 341L240 308" stroke="#EFF2F5" stroke-width="9"/>
<path d="M156 225L123 225C105.327 225 91 210.673 91 193L91 148" stroke="#EFF2F5" stroke-width="9"/>
<path d="M212 452L212 296" stroke="#EFF2F5" stroke-width="9"/>
<path d="M170 261L112 261C94.3269 261 80 275.327 80 293L80 348" stroke="#EFF2F5" stroke-width="9"/>
<g filter="url(#filter0_d_6_667)">
<rect x="147" y="163" width="147" height="147" rx="73.5" fill="#118BF0"/>
</g>
<g filter="url(#filter1_d_6_667)">
<path d="M294 55C294 37.3269 308.327 23 326 23H358V55C358 72.6731 343.673 87 326 87C308.327 87 294 72.6731 294 55Z" fill="#F7F9FB"/>
</g>
<path d="M66 138.5C66 124.969 76.969 114 90.5 114H115V138.5C115 152.031 104.031 163 90.5 163C76.969 163 66 152.031 66 138.5Z" fill="#70B9F6"/>
<path d="M320 372.5C320 358.969 330.969 348 344.5 348H369V372.5C369 386.031 358.031 397 344.5 397C330.969 397 320 386.031 320 372.5Z" fill="#70B9F6"/>
<g filter="url(#filter2_d_6_667)">
<path d="M351 257C351 239.327 365.327 225 383 225H415V257C415 274.673 400.673 289 383 289C365.327 289 351 274.673 351 257Z" fill="white"/>
</g>
<g filter="url(#filter3_d_6_667)">
<path d="M180 452C180 434.327 194.327 420 212 420H244V452C244 469.673 229.673 484 212 484C194.327 484 180 469.673 180 452Z" fill="#F7F9FB"/>
</g>
<g filter="url(#filter4_d_6_667)">
<path d="M46 341C46 323.327 60.3269 309 78 309H110V341C110 358.673 95.6731 373 78 373C60.3269 373 46 358.673 46 341Z" fill="white"/>
</g>
<path d="M392.75 245.75V268.25C392.75 270.32 391.07 272 389 272H377.75C375.68 272 374 270.32 374 268.25V245.75C374 243.68 375.68 242 377.75 242H389C391.07 242 392.75 243.68 392.75 245.75ZM390.87 245.75C390.87 244.72 390.03 243.87 388.99 243.87H377.75C376.72 243.87 375.87 244.71 375.87 245.75V268.25C375.87 269.28 376.71 270.13 377.75 270.13H389C390.03 270.13 390.88 269.29 390.88 268.25V245.75H390.87ZM386.18 266.37C386.18 266.89 385.76 267.31 385.24 267.31H381.49C380.97 267.31 380.55 266.89 380.55 266.37C380.55 265.85 380.97 265.43 381.49 265.43H385.24C385.76 265.43 386.18 265.85 386.18 266.37Z" fill="#118BF0"/>
<path d="M310.88 46.75V49.09L322.34 57.49C323.33 58.22 324.68 58.22 325.67 57.49L328.33 55.54C328.03 56.4 327.84 57.32 327.78 58.26L326.78 58.99C325.13 60.2 322.89 60.2 321.24 58.99L310.88 51.41V61.75C310.88 62.79 311.72 63.63 312.76 63.63H328.88C329.22 64.3 329.64 64.93 330.11 65.51H312.75C310.68 65.51 309 63.83 309 61.76V46.75C309 44.68 310.68 43 312.75 43H335.25C337.32 43 339 44.68 339 46.75V48.67C338.69 48.64 338.38 48.63 338.06 48.63C337.74 48.63 337.43 48.64 337.12 48.67V46.75C337.12 45.71 336.28 44.87 335.24 44.87H312.75C311.71 44.87 310.87 45.71 310.87 46.75H310.88ZM329.62 58.94C329.62 54.28 333.4 50.5 338.06 50.5C342.72 50.5 346.5 54.28 346.5 58.94C346.5 63.6 342.72 67.38 338.06 67.38C333.4 67.38 329.62 63.6 329.62 58.94ZM338.06 65.5C341.69 65.5 344.62 62.56 344.62 58.94C344.62 55.32 341.68 52.38 338.06 52.38C334.44 52.38 331.5 55.32 331.5 58.94C331.5 62.56 334.44 65.5 338.06 65.5ZM342 56.4C342.37 56.76 342.37 57.36 342 57.72L337.78 61.94C337.42 62.31 336.82 62.31 336.46 61.94L334.12 59.6C333.75 59.24 333.75 58.64 334.12 58.28C334.48 57.91 335.08 57.91 335.44 58.28L337.12 59.96L340.68 56.4C341.04 56.03 341.64 56.03 342 56.4Z" fill="#70B9F6"/>
<path d="M63 331.75C63 329.68 64.68 328 66.75 328H89.25C91.32 328 93 329.68 93 331.75V350.5C93 352.57 91.32 354.25 89.25 354.25H66.75C64.68 354.25 63 352.57 63 350.5V331.75ZM70.5 329.88H66.75C65.71 329.88 64.87 330.72 64.87 331.76V333.64H70.5V329.88ZM64.88 335.5V350.5C64.88 351.54 65.72 352.38 66.76 352.38H89.25C90.29 352.38 91.13 351.54 91.13 350.5V335.5H64.88ZM72.38 333.62H91.12V331.74C91.12 330.7 90.28 329.86 89.24 329.86H72.38V333.61V333.62Z" fill="#118BF0"/>
<path d="M226.93 459.409L225.65 464.949C225.37 466.159 224.31 467.009 223.06 467.009C208.7 466.999 197 455.299 197 440.929C197 439.689 197.85 438.629 199.06 438.349L204.59 437.069C205.83 436.779 207.12 437.429 207.63 438.609L210.18 444.569C210.65 445.659 210.35 446.909 209.43 447.669L207.06 449.609C208.74 452.699 211.31 455.269 214.4 456.949L216.34 454.579C217.08 453.669 218.35 453.359 219.43 453.809L225.39 456.369C226.57 456.879 227.21 458.159 226.93 459.409ZM225.1 458.989C225.18 458.619 224.99 458.249 224.65 458.099L218.7 455.549C218.39 455.419 218.01 455.509 217.79 455.779L215.36 458.739C215.08 459.079 214.61 459.179 214.22 458.989C210.25 457.029 206.98 453.769 205.03 449.799C204.84 449.409 204.94 448.939 205.28 448.659L208.24 446.229C208.51 446.009 208.6 445.639 208.46 445.319L205.91 439.359C205.79 439.069 205.5 438.889 205.19 438.889C205.13 438.889 205.07 438.889 205.02 438.909L199.48 440.179C199.12 440.259 198.87 440.569 198.87 440.929C198.87 454.269 209.72 465.119 223.06 465.119C223.42 465.119 223.74 464.869 223.82 464.519L225.09 458.979L225.1 458.989Z" fill="#70B9F6"/>
<path d="M84.92 125C85.31 125 85.625 125.315 85.625 125.705V127.812H94.0625V125.705C94.0625 125.315 94.3775 125 94.7675 125C95.1575 125 95.4725 125.315 95.4725 125.705V127.812H96.8825C98.435 127.812 99.695 129.073 99.695 130.625V133.467C99.4625 133.445 99.23 133.438 98.99 133.438C98.75 133.438 98.5175 133.445 98.285 133.467V133.438H81.41V144.688C81.41 145.468 82.04 146.097 82.82 146.097H93.0275C93.47 146.63 93.98 147.103 94.55 147.507H82.8125C81.26 147.507 80 146.247 80 144.695V130.625C80 129.073 81.26 127.812 82.8125 127.812H84.2225V125.705C84.2225 125.315 84.5375 125 84.9275 125H84.92ZM96.875 129.215H82.8125C82.0325 129.215 81.4025 129.845 81.4025 130.625V132.035H98.285V130.625C98.285 129.845 97.655 129.215 96.875 129.215ZM92.66 141.17C92.66 137.675 95.495 134.84 98.99 134.84C102.485 134.84 105.32 137.675 105.32 141.17C105.32 144.665 102.485 147.5 98.99 147.5C95.495 147.5 92.66 144.665 92.66 141.17ZM98.99 146.09C101.712 146.09 103.91 143.885 103.91 141.17C103.91 138.455 101.705 136.25 98.99 136.25C96.275 136.25 94.07 138.455 94.07 141.17C94.07 143.885 96.275 146.09 98.99 146.09ZM98.9525 137.653C99.38 137.653 99.6575 137.967 99.6575 138.358V140.465H101.105C101.495 140.465 101.81 140.78 101.81 141.17C101.81 141.56 101.495 141.875 101.105 141.875H98.9525C98.6075 141.875 98.2475 141.56 98.2475 141.17V138.358C98.2475 137.967 98.6 137.653 98.9525 137.653Z" fill="white"/>
<path d="M356.65 378.465H356.298C356.298 380.798 354.408 382.68 352.083 382.68C349.758 382.68 347.868 380.79 347.868 378.465H342.243C342.243 380.798 340.353 382.68 338.028 382.68C335.703 382.68 333.813 380.79 333.813 378.465H333.46C332.103 378.465 331 377.363 331 376.005V365.46C330.985 364.102 332.088 363 333.445 363H351.453C352.053 363 352.623 363.255 353.02 363.697L358.57 369.862C358.915 370.207 359.11 370.747 359.11 371.273V376.005C359.11 377.363 358.008 378.465 356.65 378.465ZM332.395 370.035H338.02V364.41H333.445C332.86 364.41 332.388 364.882 332.388 365.467V370.035H332.395ZM332.395 371.445V376.013C332.395 376.597 332.868 377.07 333.453 377.07H334.045C334.623 375.427 336.19 374.257 338.028 374.257C339.865 374.257 341.433 375.427 342.003 377.07H348.108C348.685 375.427 350.245 374.257 352.083 374.257C353.92 374.257 355.488 375.427 356.058 377.07H356.65C357.235 377.07 357.708 376.597 357.708 376.013V371.445H332.395ZM338.02 381.285C339.573 381.285 340.833 380.025 340.833 378.472C340.833 376.92 339.573 375.66 338.02 375.66C336.468 375.66 335.208 376.92 335.208 378.472C335.208 380.025 336.468 381.285 338.02 381.285ZM339.43 370.035H346.465V364.41H339.423V370.035H339.43ZM347.868 370.035H356.838L351.985 364.643C351.85 364.493 351.663 364.41 351.46 364.41H347.868V370.035ZM352.083 375.66C350.53 375.66 349.27 376.92 349.27 378.472C349.27 380.025 350.53 381.285 352.083 381.285C353.635 381.285 354.895 380.025 354.895 378.472C354.895 376.92 353.635 375.66 352.083 375.66Z" fill="white"/>
<circle cx="224.5" cy="128.5" r="3.5" fill="#118BF0"/>
<circle cx="331.5" cy="257.5" r="3.5" fill="#118BF0"/>
<circle cx="90.5" cy="182.5" r="3.5" fill="#118BF0"/>
<circle cx="211.5" cy="337.5" r="3.5" fill="#118BF0"/>
<circle cx="211.5" cy="393.5" r="3.5" fill="#118BF0"/>
<path d="M190.4 225.536C192.768 225.536 194.837 226.005 196.608 226.944C198.379 227.883 199.744 229.205 200.704 230.912C201.685 232.597 202.176 234.549 202.176 236.768C202.176 238.965 201.685 240.917 200.704 242.624C199.744 244.331 198.368 245.653 196.576 246.592C194.805 247.531 192.747 248 190.4 248H181.984V225.536H190.4ZM190.048 243.264C192.117 243.264 193.728 242.699 194.88 241.568C196.032 240.437 196.608 238.837 196.608 236.768C196.608 234.699 196.032 233.088 194.88 231.936C193.728 230.784 192.117 230.208 190.048 230.208H187.456V243.264H190.048ZM204.466 239.04C204.466 237.205 204.807 235.595 205.49 234.208C206.194 232.821 207.143 231.755 208.338 231.008C209.533 230.261 210.866 229.888 212.338 229.888C213.597 229.888 214.695 230.144 215.634 230.656C216.594 231.168 217.33 231.84 217.842 232.672V230.144H223.314V248H217.842V245.472C217.309 246.304 216.562 246.976 215.602 247.488C214.663 248 213.565 248.256 212.306 248.256C210.855 248.256 209.533 247.883 208.338 247.136C207.143 246.368 206.194 245.291 205.49 243.904C204.807 242.496 204.466 240.875 204.466 239.04ZM217.842 239.072C217.842 237.707 217.458 236.629 216.69 235.84C215.943 235.051 215.026 234.656 213.938 234.656C212.85 234.656 211.922 235.051 211.154 235.84C210.407 236.608 210.034 237.675 210.034 239.04C210.034 240.405 210.407 241.493 211.154 242.304C211.922 243.093 212.85 243.488 213.938 243.488C215.026 243.488 215.943 243.093 216.69 242.304C217.458 241.515 217.842 240.437 217.842 239.072ZM237.545 243.36V248H234.761C232.777 248 231.23 247.52 230.121 246.56C229.011 245.579 228.457 243.989 228.457 241.792V234.688H226.281V230.144H228.457V225.792H233.929V230.144H237.513V234.688H233.929V241.856C233.929 242.389 234.057 242.773 234.313 243.008C234.569 243.243 234.995 243.36 235.593 243.36H237.545ZM239.825 239.04C239.825 237.205 240.166 235.595 240.849 234.208C241.553 232.821 242.502 231.755 243.697 231.008C244.891 230.261 246.225 229.888 247.697 229.888C248.955 229.888 250.054 230.144 250.993 230.656C251.953 231.168 252.689 231.84 253.201 232.672V230.144H258.673V248H253.201V245.472C252.667 246.304 251.921 246.976 250.961 247.488C250.022 248 248.923 248.256 247.665 248.256C246.214 248.256 244.891 247.883 243.697 247.136C242.502 246.368 241.553 245.291 240.849 243.904C240.166 242.496 239.825 240.875 239.825 239.04ZM253.201 239.072C253.201 237.707 252.817 236.629 252.049 235.84C251.302 235.051 250.385 234.656 249.297 234.656C248.209 234.656 247.281 235.051 246.513 235.84C245.766 236.608 245.393 237.675 245.393 239.04C245.393 240.405 245.766 241.493 246.513 242.304C247.281 243.093 248.209 243.488 249.297 243.488C250.385 243.488 251.302 243.093 252.049 242.304C252.817 241.515 253.201 240.437 253.201 239.072Z" fill="white"/>
</g>
<defs>
<filter id="filter0_d_6_667" x="87" y="143" width="227" height="227" filterUnits="userSpaceOnUse" color-interpolation-filters="sRGB">
<feFlood flood-opacity="0" result="BackgroundImageFix"/>
<feColorMatrix in="SourceAlpha" type="matrix" values="0 0 0 0 0 0 0 0 0 0 0 0 0 0 0 0 0 0 127 0" result="hardAlpha"/>
<feOffset dx="-20" dy="20"/>
<feGaussianBlur stdDeviation="20"/>
<feComposite in2="hardAlpha" operator="out"/>
<feColorMatrix type="matrix" values="0 0 0 0 0.898039 0 0 0 0 0.898039 0 0 0 0 0.898039 0 0 0 0.25 0"/>
<feBlend mode="normal" in2="BackgroundImageFix" result="effect1_dropShadow_6_667"/>
<feBlend mode="normal" in="SourceGraphic" in2="effect1_dropShadow_6_667" result="shape"/>
</filter>
<filter id="filter1_d_6_667" x="234" y="3" width="144" height="144" filterUnits="userSpaceOnUse" color-interpolation-filters="sRGB">
<feFlood flood-opacity="0" result="BackgroundImageFix"/>
<feColorMatrix in="SourceAlpha" type="matrix" values="0 0 0 0 0 0 0 0 0 0 0 0 0 0 0 0 0 0 127 0" result="hardAlpha"/>
<feOffset dx="-20" dy="20"/>
<feGaussianBlur stdDeviation="20"/>
<feComposite in2="hardAlpha" operator="out"/>
<feColorMatrix type="matrix" values="0 0 0 0 0.741176 0 0 0 0 0.8 0 0 0 0 0.831373 0 0 0 0.5 0"/>
<feBlend mode="normal" in2="BackgroundImageFix" result="effect1_dropShadow_6_667"/>
<feBlend mode="normal" in="SourceGraphic" in2="effect1_dropShadow_6_667" result="shape"/>
</filter>
<filter id="filter2_d_6_667" x="291" y="205" width="144" height="144" filterUnits="userSpaceOnUse" color-interpolation-filters="sRGB">
<feFlood flood-opacity="0" result="BackgroundImageFix"/>
<feColorMatrix in="SourceAlpha" type="matrix" values="0 0 0 0 0 0 0 0 0 0 0 0 0 0 0 0 0 0 127 0" result="hardAlpha"/>
<feOffset dx="-20" dy="20"/>
<feGaussianBlur stdDeviation="20"/>
<feComposite in2="hardAlpha" operator="out"/>
<feColorMatrix type="matrix" values="0 0 0 0 0.741176 0 0 0 0 0.8 0 0 0 0 0.831373 0 0 0 0.5 0"/>
<feBlend mode="normal" in2="BackgroundImageFix" result="effect1_dropShadow_6_667"/>
<feBlend mode="normal" in="SourceGraphic" in2="effect1_dropShadow_6_667" result="shape"/>
</filter>
<filter id="filter3_d_6_667" x="120" y="400" width="144" height="144" filterUnits="userSpaceOnUse" color-interpolation-filters="sRGB">
<feFlood flood-opacity="0" result="BackgroundImageFix"/>
<feColorMatrix in="SourceAlpha" type="matrix" values="0 0 0 0 0 0 0 0 0 0 0 0 0 0 0 0 0 0 127 0" result="hardAlpha"/>
<feOffset dx="-20" dy="20"/>
<feGaussianBlur stdDeviation="20"/>
<feComposite in2="hardAlpha" operator="out"/>
<feColorMatrix type="matrix" values="0 0 0 0 0.741176 0 0 0 0 0.8 0 0 0 0 0.831373 0 0 0 0.5 0"/>
<feBlend mode="normal" in2="BackgroundImageFix" result="effect1_dropShadow_6_667"/>
<feBlend mode="normal" in="SourceGraphic" in2="effect1_dropShadow_6_667" result="shape"/>
</filter>
<filter id="filter4_d_6_667" x="-14" y="289" width="144" height="144" filterUnits="userSpaceOnUse" color-interpolation-filters="sRGB">
<feFlood flood-opacity="0" result="BackgroundImageFix"/>
<feColorMatrix in="SourceAlpha" type="matrix" values="0 0 0 0 0 0 0 0 0 0 0 0 0 0 0 0 0 0 127 0" result="hardAlpha"/>
<feOffset dx="-20" dy="20"/>
<feGaussianBlur stdDeviation="20"/>
<feComposite in2="hardAlpha" operator="out"/>
<feColorMatrix type="matrix" values="0 0 0 0 0.741176 0 0 0 0 0.8 0 0 0 0 0.831373 0 0 0 0.5 0"/>
<feBlend mode="normal" in2="BackgroundImageFix" result="effect1_dropShadow_6_667"/>
<feBlend mode="normal" in="SourceGraphic" in2="effect1_dropShadow_6_667" result="shape"/>
</filter>
<clipPath id="clip0_6_667">
<path d="M0 25C0 11.1929 11.1929 0 25 0H423C436.807 0 448 11.1929 448 25V505C448 518.807 436.807 530 423 530H25C11.1929 530 0 518.807 0 505V25Z" fill="white"/>
</clipPath>
</defs>
</svg>
