<svg width="34" height="31" viewBox="0 0 34 31" fill="none" xmlns="http://www.w3.org/2000/svg">
<path d="M24.91 10.59L31.82 7.82C32.75 7.45 33.75 8.13 33.75 9.13V25C33.75 25.57 33.4 26.09 32.87 26.31L23.79 29.94C23.6 30.02 23.39 30.03 23.19 29.97L10.38 26.31L1.93 29.68C1.01 30.05 0 29.37 0 28.37V12.5C0 11.93 0.35 11.41 0.88 11.19L8.1 8.31C8.22 8.92 8.41 9.53 8.64 10.11L1.88 12.82V27.68L9.38 24.68V17.81C9.38 17.29 9.8 16.87 10.32 16.87C10.84 16.87 11.26 17.29 11.26 17.81V24.6L22.51 27.82V17.76C22.51 17.3 22.93 16.82 23.45 16.82C23.97 16.82 24.39 17.29 24.39 17.76V27.68L31.89 24.68V9.82L23.8 13.06C23.8 13.06 23.71 13.09 23.65 13.1C24.13 12.27 24.57 11.42 24.93 10.59H24.91ZM23.9 7.03C23.9 10.23 19.62 15.93 17.74 18.23C17.29 18.85 16.46 18.85 16.01 18.23C14.13 15.93 9.85 10.23 9.85 7.03C9.85 3.15 13 0 16.88 0C20.76 0 23.91 3.15 23.91 7.03H23.9ZM16.88 1.88C14.03 1.88 11.72 4.19 11.72 7.04C11.72 7.47 11.88 8.15 12.27 9.04C12.65 10 13.19 10.99 13.82 12C14.82 13.63 15.98 15.21 16.88 16.36C17.78 15.21 18.94 13.63 19.94 12C20.57 10.99 21.11 9.99 21.49 9.04C21.88 8.16 22.04 7.48 22.04 7.04C22.04 4.19 19.73 1.88 16.88 1.88Z" fill="white"/>
</svg>
