<svg width="30" height="30" viewBox="0 0 30 30" fill="none" xmlns="http://www.w3.org/2000/svg">
<path d="M6.89 28.61C6.77 28.74 6.66 28.87 6.56 28.99C6 29.62 5.62 30 5.62 30C5.62 30 5.09 29.47 4.35 28.62C2.69 26.72 0 23.22 0 20.63C0 17.47 2.52 15.01 5.62 15.01C8.72 15.01 11.24 17.48 11.24 20.63C11.24 23.02 8.95 26.18 7.29 28.15C7.15 28.31 7.01 28.47 6.89 28.62V28.61ZM8.69 22.83C9.16 21.88 9.32 21.13 9.32 20.62C9.32 18.55 7.69 16.87 5.57 16.87C3.45 16.87 1.82 18.55 1.82 20.62C1.82 21.13 2.08 21.88 2.55 22.83C3.01 23.75 3.64 24.71 4.31 25.59C4.76 26.19 5.22 26.75 5.57 27.22C6.03 26.75 6.48 26.19 6.94 25.59C7.6 24.71 8.23 23.75 8.7 22.83H8.69ZM4.16 20.62C4.16 19.84 4.84 19.21 5.57 19.21C6.4 19.21 6.98 19.84 6.98 20.62C6.98 21.4 6.41 22.03 5.57 22.03C4.85 22.03 4.16 21.4 4.16 20.62ZM24.37 15H19.68C18.13 15 16.87 16.26 16.87 17.81C16.87 19.36 18.13 20.62 19.68 20.62H25.3C27.89 20.62 29.99 22.72 29.99 25.31C29.99 27.9 27.89 30 25.3 30H8.17C8.62 29.48 9.16 28.85 9.66 28.12H25.3C26.85 28.12 28.11 26.86 28.11 25.31C28.11 23.76 26.85 22.5 25.3 22.5H19.68C17.09 22.5 14.94 20.4 14.94 17.81C14.94 15.22 17.09 13.12 19.68 13.12H22.67C21.01 11.15 18.74 8 18.74 5.62C18.74 2.51 21.21 0 24.36 0C27.51 0 29.98 2.52 29.98 5.62C29.98 8.22 27.28 11.71 25.63 13.61C24.89 14.46 24.36 14.99 24.36 14.99L24.37 15ZM27.44 7.83C27.91 6.88 28.12 6.13 28.12 5.62C28.12 3.55 26.44 1.87 24.37 1.87C22.3 1.87 20.62 3.55 20.62 5.62C20.62 6.13 20.83 6.88 21.3 7.83C21.76 8.75 22.39 9.71 23.06 10.59C23.51 11.19 23.97 11.75 24.37 12.22C24.77 11.75 25.23 11.19 25.68 10.59C26.35 9.71 26.97 8.75 27.44 7.83ZM25.78 5.62C25.78 6.4 25.15 7.03 24.37 7.03C23.59 7.03 22.96 6.4 22.96 5.62C22.96 4.84 23.59 4.21 24.37 4.21C25.15 4.21 25.78 4.84 25.78 5.62Z" fill="white"/>
</svg>
