<svg width="30" height="30" viewBox="0 0 30 30" fill="none" xmlns="http://www.w3.org/2000/svg">
<path d="M18.52 22.7C17.55 27 13.79 29.99 9.38 29.99C4.21 30 0 25.79 0 20.62C0 16.21 3 12.45 7.29 11.43C7.79 11.31 8.29 11.68 8.41 12.19C8.53 12.7 8.21 13.2 7.7 13.31C4.27 14.09 1.87 17.1 1.87 20.62C1.87 24.76 5.23 28.12 9.37 28.12C12.9 28.12 15.9 25.72 16.63 22.29C16.75 21.79 17.24 21.47 17.75 21.58C18.31 21.7 18.57 22.2 18.51 22.7H18.52ZM7.03 3.28C7.03 1.47 8.5 0 10.31 0C12.12 0 13.59 1.47 13.59 3.28C13.59 5.09 12.12 6.56 10.31 6.56C8.5 6.56 7.03 5.09 7.03 3.28ZM8.91 3.28C8.91 4.06 9.54 4.69 10.32 4.69C11.1 4.69 11.73 4.06 11.73 3.28C11.73 2.5 11.1 1.87 10.32 1.87C9.54 1.87 8.91 2.5 8.91 3.28ZM29.29 26.22L25.54 27.16C25.46 27.18 25.39 27.19 25.31 27.19C24.95 27.19 24.55 26.98 24.45 26.63L20.95 18.75H13.12C12.68 18.75 12.3 18.45 12.21 18.02L10.33 9.58C10.22 9.07 10.54 8.57 11.04 8.46C11.55 8.35 12.05 8.67 12.16 9.17L12.62 11.25H19.68C20.2 11.25 20.62 11.67 20.62 12.19C20.62 12.71 20.2 13.13 19.68 13.13H13.04L13.87 16.88H21.5C21.92 16.88 22.26 17.1 22.41 17.44L25.84 25.16L28.83 24.41C29.33 24.28 29.84 24.59 29.97 25.09C30.1 25.59 29.79 26.1 29.29 26.23V26.22Z" fill="white"/>
</svg>
